# xmcd CD database file
#
# Track frame offsets:
#	150
#	23015
#	38970
#	59070
#	76680
#	93205
#	106540
#	129315
#	148355
#	169935
#	189525
#	213620
#	226770
#
# Disc length: 3193 seconds
#
# Revision: 0
# Processed by: cddbd v1.5.2PL0 Copyright (c) Steve Scherf et al.
# Submitted via: CDex 1.70beta2
#
DISCID=a90c770d
DTITLE=Thomas Arnesen - Tillbaks Igen
DYEAR=1997
DGENRE=Blues
TTITLE0=Skuggorna Runt Slussen
TTITLE1=Ingens Hund
TTITLE2=Tillbaks Igen
TTITLE3=Älska Mig Hem
TTITLE4=Minnets Monument
TTITLE5=Vägen Mot Stranden
TTITLE6=I Parken Tänds Lyktor
TTITLE7=Du hör Inte På
TTITLE8=Backbeat Blues
TTITLE9=Hjärtats Tårar
TTITLE10=Cecilias Väska
TTITLE11=Min Ängel
TTITLE12=Tusen Volt
EXTD=YEAR: 1997
EXTT0=
EXTT1=
EXTT2=
EXTT3=
EXTT4=
EXTT5=
EXTT6=
EXTT7=
EXTT8=
EXTT9=
EXTT10=
EXTT11=
EXTT12=
PLAYORDER=
